<svg width="51" height="40" viewBox="0 0 51 40" fill="none" xmlns="http://www.w3.org/2000/svg">
<g clip-path="url(#clip0_2307_32565)">
<mask id="mask0_2307_32565" style="mask-type:luminance" maskUnits="userSpaceOnUse" x="0" y="0" width="51" height="40">
<path d="M51 0.875H0V39.125H51V0.875Z" fill="white"/>
</mask>
<g mask="url(#mask0_2307_32565)">
<path d="M9.57322 7.14949L31.6332 1.625L50.1112 16.903L50.6641 28.2757L40.7003 38.4103H18.9265H8.2206L2.94381 29.552L0.105469 19.589L6.14433 12.0834L9.57322 7.14949Z" fill="#235E74" stroke="#FDFBF6" stroke-width="0.375"/>
<path d="M31.6332 1.625L29.1562 11.0928L36.4332 20.8463L50.5688 28.2757" stroke="#FDFBF6" stroke-width="0.375"/>
<path d="M27.7266 38.4882L36.4323 21.1338" stroke="#FDFBF6" stroke-width="0.375"/>
<path d="M3.05859 29.6676L7.89705 22.5811L18.4314 38.4115" stroke="#FDFBF6" stroke-width="0.375"/>
<path d="M29.1643 11.0938L8.05714 22.5808L6.15234 12.0843" stroke="#FDFBF6" stroke-width="0.375"/>
<mask id="mask1_2307_32565" style="mask-type:alpha" maskUnits="userSpaceOnUse" x="-10" y="10" width="68" height="29">
<path fill-rule="evenodd" clip-rule="evenodd" d="M20.1142 10.4226L-9.69548 38.4777L-9.75 38.4194L20.0597 10.3643L20.1142 10.4226ZM23.9606 10.4226L-5.84909 38.4777L-5.90359 38.4194L23.9061 10.3643L23.9606 10.4226ZM-2.00268 38.4777L27.807 10.4226L27.7525 10.3643L-2.05718 38.4194L-2.00268 38.4777ZM31.6534 10.4226L1.84373 38.4777L1.78923 38.4194L31.5989 10.3643L31.6534 10.4226ZM5.69014 38.4777L35.4998 10.4226L35.4453 10.3643L5.63564 38.4194L5.69014 38.4777ZM39.3462 10.4226L9.53655 38.4777L9.48203 38.4194L39.2917 10.3643L39.3462 10.4226ZM13.3829 38.4777L43.1926 10.4226L43.1381 10.3643L13.3285 38.4194L13.3829 38.4777ZM47.039 10.4226L17.2294 38.4777L17.1749 38.4194L46.9846 10.3643L47.039 10.4226ZM21.0757 38.4777L50.8855 10.4226L50.8309 10.3643L21.0213 38.4194L21.0757 38.4777ZM54.7318 10.4226L24.9222 38.4777L24.8677 38.4194L54.6774 10.3643L54.7318 10.4226ZM-8.7339 38.4777L21.0757 10.4226L21.0213 10.3643L-8.78843 38.4194L-8.7339 38.4777ZM24.9222 10.4226L-4.8875 38.4777L-4.94199 38.4194L24.8677 10.3643L24.9222 10.4226ZM-1.04108 38.4777L28.7686 10.4226L28.7141 10.3643L-1.09558 38.4194L-1.04108 38.4777ZM32.615 10.4226L2.80533 38.4777L2.75084 38.4194L32.5605 10.3643L32.615 10.4226ZM6.65174 38.4777L36.4614 10.4226L36.4069 10.3643L6.59725 38.4194L6.65174 38.4777ZM40.3079 10.4226L10.4981 38.4777L10.4437 38.4194L40.2533 10.3643L40.3079 10.4226ZM14.3446 38.4777L44.1542 10.4226L44.0998 10.3643L14.29 38.4194L14.3446 38.4777ZM48.0007 10.4226L18.191 38.4777L18.1365 38.4194L47.9462 10.3643L48.0007 10.4226ZM22.0374 38.4777L51.8471 10.4226L51.7926 10.3643L21.9829 38.4194L22.0374 38.4777ZM55.6935 10.4226L25.8838 38.4777L25.8293 38.4194L55.639 10.3643L55.6935 10.4226ZM-7.77233 38.4777L22.0374 10.4226L21.9829 10.3643L-7.82678 38.4194L-7.77233 38.4777ZM25.8838 10.4226L-3.92589 38.4777L-3.98038 38.4194L25.8293 10.3643L25.8838 10.4226ZM-0.0794783 38.4777L29.7302 10.4226L29.6757 10.3643L-0.133973 38.4194L-0.0794783 38.4777ZM33.5766 10.4226L3.76693 38.4777L3.71244 38.4194L33.5222 10.3643L33.5766 10.4226ZM7.61333 38.4777L37.423 10.4226L37.3685 10.3643L7.55887 38.4194L7.61333 38.4777ZM41.2694 10.4226L11.4598 38.4777L11.4053 38.4194L41.215 10.3643L41.2694 10.4226ZM15.3061 38.4777L45.1159 10.4226L45.0614 10.3643L15.2517 38.4194L15.3061 38.4777ZM48.9622 10.4226L19.1526 38.4777L19.0981 38.4194L48.9077 10.3643L48.9622 10.4226ZM22.999 38.4777L52.8087 10.4226L52.7542 10.3643L22.9445 38.4194L22.999 38.4777ZM56.6551 10.4226L26.8454 38.4777L26.7909 38.4194L56.6005 10.3643L56.6551 10.4226ZM13.6234 15.7004L18.3512 11.256L18.2968 11.1976L13.5689 15.6419L13.6234 15.7004ZM22.999 10.4226L-6.8107 38.4777L-6.86519 38.4194L22.9445 10.3643L22.999 10.4226ZM-2.96428 38.4777L26.8454 10.4226L26.7909 10.3643L-3.01878 38.4194L-2.96428 38.4777ZM30.6918 10.4226L0.882128 38.4777L0.827633 38.4194L30.6373 10.3643L30.6918 10.4226ZM4.72853 38.4777L34.5382 10.4226L34.4837 10.3643L4.67404 38.4194L4.72853 38.4777ZM38.3846 10.4226L8.57497 38.4777L8.52045 38.4194L38.3301 10.3643L38.3846 10.4226ZM12.4214 38.4777L42.2311 10.4226L42.1765 10.3643L12.3668 38.4194L12.4214 38.4777ZM46.0774 10.4226L16.2678 38.4777L16.2133 38.4194L46.0229 10.3643L46.0774 10.4226ZM20.1142 38.4777L49.9238 10.4226L49.8694 10.3643L20.0597 38.4194L20.1142 38.4777ZM53.7703 10.4226L23.9606 38.4777L23.9061 38.4194L53.7158 10.3643L53.7703 10.4226ZM27.807 38.4777L57.6166 10.4226L57.5622 10.3643L27.7525 38.4194L27.807 38.4777Z" fill="black"/>
</mask>
<g mask="url(#mask1_2307_32565)">
<path d="M7.99609 22.417L29.1513 11.0381L36.2832 20.9746L27.8291 38.1232H18.2532L7.99609 22.417Z" fill="#D9D9D9" stroke="black" stroke-width="0.09375"/>
</g>
</g>
</g>
<defs>
<clipPath id="clip0_2307_32565">
<rect width="51" height="38.25" fill="white" transform="translate(0 0.875)"/>
</clipPath>
</defs>
</svg>
